<?xml version="1.0" standalone="no"?>
<!DOCTYPE svg PUBLIC "-//W3C//DTD SVG 20010904//EN"
 "http://www.w3.org/TR/2001/REC-SVG-20010904/DTD/svg10.dtd">
<svg version="1.0" xmlns="http://www.w3.org/2000/svg"
 width="316.000000pt" height="316.000000pt" viewBox="0 0 316.000000 316.000000"
 preserveAspectRatio="xMidYMid meet">
<metadata>
Created by potrace 1.14, written by Peter Selinger 2001-2017
</metadata>
<g transform="translate(0.000000,316.000000) scale(0.100000,-0.100000)"
fill="#000000" stroke="none">
<path d="M1520 2829 c-41 -16 -207 -74 -367 -129 -381 -129 -445 -157 -618
-274 -112 -75 -296 -257 -360 -355 -63 -98 -117 -216 -146 -321 -20 -72 -23
-108 -23 -240 0 -129 4 -169 23 -239 96 -357 368 -591 690 -593 141 -2 328 53
910 267 85 31 256 90 380 132 253 84 304 108 371 173 104 101 153 207 153 330
-1 159 -98 263 -248 262 -68 0 -231 -52 -675 -212 -430 -156 -665 -231 -720
-232 -58 0 -126 34 -156 79 -63 96 -38 250 58 354 60 65 117 97 237 135 64 20
296 100 516 179 483 172 666 232 765 249 339 58 649 -161 746 -529 28 -105 26
-332 -4 -440 -47 -171 -146 -335 -286 -476 -170 -172 -349 -275 -648 -373
-106 -36 -258 -87 -337 -115 -79 -28 -149 -51 -156 -51 -8 0 -11 33 -10 110 0
60 3 111 5 113 9 7 326 117 491 171 90 29 189 66 219 81 268 134 461 377 505
635 12 64 6 204 -10 265 -58 224 -236 374 -450 379 -89 2 -253 -43 -572 -158
-68 -24 -123 -40 -123 -35 0 15 -54 37 -79 33 -97 -16 -169 -158 -109 -214 37
-34 97 -23 147 29 16 17 32 38 35 49 4 10 21 24 39 29 17 6 103 36 189 66 224
80 355 117 418 119 216 8 383 -124 434 -343 13 -56 15 -179 2 -234 -38 -178
-136 -329 -296 -457 -83 -66 -193 -116 -450 -202 -140 -47 -302 -103 -360
-124 l-105 -39 -3 -191 c-1 -106 -1 -192 2 -192 2 0 48 16 102 36 143 52 306
108 490 168 314 104 508 218 696 409 222 225 332 488 323 772 -2 55 -5 109 -8
120 -3 11 -8 40 -12 63 -17 107 -98 268 -188 375 -118 142 -331 244 -502 240
-163 -3 -261 -32 -905 -263 -157 -56 -366 -129 -465 -161 -193 -64 -253 -96
-325 -173 -150 -160 -172 -375 -50 -496 62 -62 137 -83 235 -66 42 7 391 126
675 229 407 147 600 209 655 210 203 2 260 -244 99 -431 -57 -67 -109 -96
-264 -147 -80 -26 -302 -104 -495 -172 -661 -236 -733 -257 -875 -255 -74 1
-95 4 -166 25 -283 84 -489 386 -488 717 1 271 102 498 319 715 188 188 325
262 765 411 173 58 330 112 348 120 l33 13 -3 -117 -3 -117 -75 -27 c-41 -14
-192 -66 -335 -114 -319 -107 -401 -149 -538 -274 -279 -256 -355 -638 -179
-908 83 -128 227 -204 386 -204 95 0 151 15 446 117 91 31 180 62 197 68 27 8
36 7 52 -7 24 -22 69 -26 102 -10 42 21 86 79 94 124 19 113 -105 134 -183 30
-25 -33 -49 -51 -90 -68 -92 -36 -442 -151 -507 -165 -152 -34 -313 19 -407
134 -186 230 -128 590 137 837 113 106 200 153 410 222 125 40 377 127 525
181 19 7 37 16 40 20 10 15 5 372 -5 375 -6 1 -44 -11 -85 -27z m90 -928 c0
-23 -25 -51 -46 -51 -14 0 -19 27 -8 54 9 24 54 21 54 -3z m-2 -615 c7 -37
-49 -65 -62 -31 -7 18 30 58 47 52 7 -2 13 -11 15 -21z"/>
</g>
</svg>
